<?xml version="1.0" encoding="utf-8"?>
<svg version="1.1" id="PneusLogo" xmlns="http://www.w3.org/2000/svg" xmlns:xlink="http://www.w3.org/1999/xlink" x="0px" y="0px" viewBox="1253 159.4 3639.4 815.5" style="enable-background:new 1253 159.4 3639.4 815.5;" xml:space="preserve">
<style type="text/css">
	.st0{fill:#ad0d0f;font-size:500px;font-weight:bold;font-family:'Comic sans MS';}
</style>
<g fill="#EEEEEE">
	<path d="M1499.7,900.1c0.9,1,2.1,2.1,3,3.1c3.7-20.3,24.4-26.1,42-27.3c-9.1-13.3-17.5-27.4-25.2-42.1 C1487.8,839.2,1467.3,863.4,1499.7,900.1z"/>
	<path d="M1407.6,397.3c36.3-36,71-52.5,97.8-59.9c6.9-15.6,14.6-30.6,22.9-44.9C1487.2,305.7,1428.1,338,1407.6,397.3z"/>
	<path d="M1498.2,787.6c-1.6-4-3.2-8-4.7-12.1c-0.8-2.1-1.6-4.3-2.3-6.5c-0.5-1.4-1-2.8-1.5-4.2c-35.9,7.6-61.2,39.8-29.1,87.3 c7-27.3,30.8-35.5,49.3-37.5c-3.7-7.8-7.2-15.8-10.5-24C1499.1,789.6,1498.7,788.6,1498.2,787.6z"/>
	<path d="M1499.5,226.9c0.9-0.8,2.2-1.9,3.2-2.7c18.3-16.5,22.2-21,22.1-26.2l-13.5,2.2c-11.4,2.7-22.8,6.4-33.9,10.9 C1492.5,211.9,1498.4,216.8,1499.5,226.9z"/>
	<path d="M1603.5,198.3c-39.8,11-97.7,33.1-129,72.7c33.6-21.1,67.8-36.4,102.1-45.7C1585.2,215.7,1594.2,206.7,1603.5,198.3z"/>
	<path d="M1565,239c-36.1,10.9-99.3,36.8-128.1,90.2c33.1-26.4,67.3-44.4,101.8-53.8C1547,262.7,1555.7,250.5,1565,239z"/>
	<path d="M1464.7,663.2c-2.8-18.9-4.8-38-5.9-57.4c0-0.3,0-0.5,0-0.8c0-0.8-0.1-1.6-0.1-2.4c-39.1,11.9-76.4,53.8-59,116.7 C1415.9,680.6,1443.4,667.4,1464.7,663.2z"/>
	<path d="M1487.8,382.5c0.5-1.4,1-2.7,1.5-4.1c1.1-3.3,2.3-6.6,3.5-9.8c1.4-3.7,2.7-7.4,4.2-11.1c-42.7,13.9-97.2,51.5-109,116.1 c32.2-39.9,65.4-57,91.5-64C1482.1,400.5,1484.8,391.5,1487.8,382.5z"/>
	<path d="M1463.1,490.2c2.6-19.6,6.1-39,10.6-57.9c-41.4,13.3-91.7,52.8-93.9,124C1406.6,513.9,1437.8,496.7,1463.1,490.2z"/>
	<path d="M1614.3,189c3.1-2.5,6.2-5,9.4-7.4l-13.3,2.2c-24.1,4-47.6,11.8-68.7,24.1c-8.8,5.1-16.5,10.5-23,16.1 C1549.7,209.1,1581.7,197.4,1614.3,189z"/>
	<path d="M1457.9,577c0-0.2,0-0.5,0-0.7c0-1.7,0-3.5,0-5.2c0-6.1,0.1-12.1,0.3-18.2c0-0.6,0-1.2,0-1.8c0-0.4,0-0.8,0.1-1.3 c0.2-6.1,0.5-12.2,0.9-18.3c0-0.1,0-0.1,0-0.2c0-0.1,0-0.2,0-0.3c0.3-5.4,0.8-10.8,1.2-16.2c-45.6,14.1-84.2,61.3-76.6,125.7 C1405.8,597.8,1435.8,582.3,1457.9,577z"/>
	<path d="M1482.6,743.1c-5.5-18.3-10.1-36.9-13.8-55.9c-36.8,9.8-68.7,46.8-43.1,103.2C1437,757.1,1462.2,746.1,1482.6,743.1z"/>
	<path d="M1455.4,273.5c0.8-1,1.9-2.4,2.8-3.5c21.9-30.3,27.7-47-2.1-49c-2.7,1.5-5.5,3-8.2,4.5c-11.2,6.5-22.1,14-32.7,22.4 C1441.1,247.9,1451.9,255.4,1455.4,273.5z"/>
	<path d="M1439.1,846c-50.3-67.6-94-89.3-128.4-98.1c4.7,11.7,9.9,23.2,15.5,34.2c2.2,4.3,4.5,8.5,6.8,12.7 c29.9,6.7,59.3,19.7,108.7,55C1440.9,848.7,1439.8,847.2,1439.1,846z"/>
	<path d="M1480.6,897.4c-63-60-109.8-78.2-137.4-85.3c9.1,14.5,19,28,29.6,40.5c28.7,6.7,58.3,18.5,110.8,47.8 C1482.7,899.5,1481.5,898.3,1480.6,897.4z"/>
	<path d="M1527.8,936.9c-44.7-29-77.5-46.6-113.3-60.6c-13.5-5.3-23.7-9.2-31.5-12.4c13,14,26.9,26.4,41.5,37.1 c28,6.9,56.7,17.4,106.6,38.1C1530.1,938.5,1528.8,937.6,1527.8,936.9z"/>
	<path d="M1567.4,906.1c-3.9-4.8-7.8-9.7-11.5-14.6c-32.1,3.4-35.4,23-21.2,38.3c4.1,4.4,10.6,9,15.6,12.3 c1.2-12.8,18.7-16.3,34.2-16.8C1578.7,919.2,1573,912.9,1567.4,906.1z"/>
	<path d="M1439.2,911.1c3.5,2.2,7,4.4,10.6,6.4c24.2,13.8,49.7,22.9,75.7,27.2l8.8,1.5c-47.5-18.7-49.7-19.5-60.3-23.1 C1459.9,918.2,1448.5,914.3,1439.2,911.1z"/>
	<path d="M1578.7,942.9c-3.1,2.4-4,6.9-1.8,10.3v0.1l47.6,7.9c-9.6-7.2-18.9-15.1-27.9-23.7C1587.1,938.2,1581.9,940.4,1578.7,942.9 z"/>
	<path d="M1418,331.3c0.7-1.3,1.6-2.9,2.3-4.2c15.9-33.5,25.9-63.7-20-66.2c-3.6,3.3-7.1,6.6-10.6,10.1 c-7.7,7.8-15.1,16.1-22.2,24.9C1397.5,296.3,1411,306.2,1418,331.3z"/>
	<path d="M1369.2,474.5c0.3-1.6,0.7-3.7,1-5.3c7.8-63.1-6.7-92.2-49.9-97.2c-6.5,13.8-12.3,28.2-17.4,43c-0.7,1.9-1.3,3.8-1.9,5.8 C1334.2,423.6,1352.9,438.7,1369.2,474.5z"/>
	<path d="M1360.9,556.4c0.1-1.7,0.1-4,0.2-5.7c-1.7-69-21.7-102.5-66.3-109.6c-1.5,5.6-3,11.2-4.4,16.9c-1.7,7.3-3.3,14.9-4.7,22.4 c-0.9,4.8-1.7,9.8-2.5,14.7C1317.5,499.4,1338.7,516.5,1360.9,556.4z"/>
	<path d="M1388.7,398.8c0.5-1.4,1.2-3.4,1.7-4.8c10.8-38,17.4-78.1-34.8-82.4c-5.4,7.5-10.6,15.3-15.5,23.4 c-3.7,6.2-7.3,12.5-10.8,19C1361.3,355.4,1377.5,368.1,1388.7,398.8z"/>
	<path d="M1380.8,718c-0.4-1.5-1-3.5-1.4-5c-28.5-84.5-67.6-107.7-101.2-115.3c0.3,5,0.6,9.9,1,14.9c0.6,7.8,1.5,15.6,2.5,23.2 c0.8,6.2,1.8,12.5,2.8,18.7C1319.2,661.1,1345.7,678.8,1380.8,718z"/>
	<path d="M1404.8,784.1c-40.1-77.2-82-100-116.2-108.3c0.3,1.6,0.7,3.2,1,4.8c3.7,16.3,8.3,32.3,13.7,47.7 c34.8,7.4,63.4,24.3,103.5,60.2C1406.2,787.2,1405.4,785.4,1404.8,784.1z"/>
	<path d="M1365,639.9c-0.2-1.6-0.5-3.8-0.7-5.5c-15.5-88.4-48.7-110.9-83.9-117.4c-0.1,1-0.3,2-0.4,3c-0.6,5.6-1,11.2-1.4,16.8 c-0.4,5.7-0.7,11.4-0.9,17c-0.2,5.8-0.3,11.6-0.3,17.2c0,1.3,0,2.6,0,3.9C1311.8,580.6,1335.8,598.8,1365,639.9z"/>
	<path class="st0" d="M1612.1,571.2L1612.1,571.2c0-44.6,6.3-86.6,17.5-124.2c11.1-37.2,26.9-69.7,46.1-95.8 c18.8-25.6,40.6-44.8,64.2-56.5c23-11.3,47.6-15.4,72.7-11.1c24.4,4.2,46.9,15.9,66.9,33.2c19.5,16.9,36.6,39.2,50.8,65.3 c13.9,25.6,24.9,55.1,32.4,87.1c7.5,31.6,11.6,66,11.6,101.8s-4.1,70.2-11.6,101.8c-7.5,32-18.6,61.5-32.4,87.1 c-14.1,26.1-31.3,48.4-50.8,65.3c-20,17.3-42.5,29-66.9,33.2c-2,0.3-4,0.5-6,0.8c3.6,2.7,7.3,5,10.9,7.3 c74.4,42.3,161-54.4,182.4-112.6c4.7-13.7,8.8-27.9,12.4-42.5c10.7-43.6,16.6-91,16.6-140.4s-5.9-96.8-16.6-140.5 c-10.8-44-26.7-84.7-46.7-120c-20.3-36-45-66.8-73-90.1c-28.7-23.9-61.2-40-96.2-45.8c-36.1-6-71.5-0.4-104.6,15.3 c-34,16.1-65.4,42.6-92.4,77.9c-27.6,36-50.3,80.8-66.3,132.1c-16.1,51.9-25.2,109.9-25.2,171.2s9,119.3,25.2,171.2 c15.9,51.3,38.7,96.1,66.3,132.1c27,35.3,58.4,61.8,92.4,77.9c33.1,15.6,68.5,21.2,104.6,15.2c14.2-2.3,27.9-6.4,41.1-11.9 C1711.3,927,1612.1,761.1,1612.1,571.2z"/>
</g>
<text x="2080" y="800" class="st0">Repar'Tout</text>
<!-- <g>
	<path class="st0" d="M2544.7,240.5h-322.6l-19,109.3l0.6,1.1h339.8c22.7,0,33.4,13.6,33.4,28.9c0,19.8-14.2,41.3-45.9,41.3h-340.3 l-34.5,198.3h130.3l16.4-90.6h190.3c134.8,0,217.5-68.6,217.5-164.3C2710.6,291.5,2652.9,240.5,2544.7,240.5z"/>
	<path class="st0" d="M3094.7,450.6L2914,255.8c-17.6-18.7-32.9-22.1-48.1-22.1c-38.5,0-77,23.2-86.1,79.9L2726,619.5h119 l36.3-208.4L3062,604.3c17.6,18.7,31.7,22.7,48.1,22.7c38,0,75.9-23.2,86.1-79.9l53.2-305.9h-119L3094.7,450.6z"/>
	<path class="st0" d="M4310.8,240.5h-132L4140.9,454c-9.1,45.3-39.1,62.9-119.5,62.9c-102,0-126.9-11.3-126.9-42.5 c0-6.2,1.1-12.5,4-26.6l36.8-207.3h-130.8l-38,213.5c-2.3,11.9-3.4,23.8-3.4,35.1c0,91.2,73.6,136.5,238.5,136.5 c162.6,0,250.4-56.6,270.8-171.6L4310.8,240.5z"/>
	<path class="st0" d="M4501.1,350.9h347l19.9-110.5h-334.6c-138.8,0-189.2,56.1-189.2,138.2c0,54.4,38.6,92.3,125.2,92.3h214.2 c16.4,0,24.9,5.7,24.9,16.4c0,15.3-10.8,23.2-30.6,23.2h-364.7c-16.1,44.9-43.1,81.3-80.5,108.8H4657c81,0,127.3-21.4,152.4-53.2 c20.6-25.7,27.1-58.3,27.1-91.8c0-11.1-1.7-21.1-5.1-30.1c-13.9-37-55.8-56.4-121.8-56.4h-214.7c-15.3,0-23.8-4-23.8-15.3 C4471.1,356.6,4480.8,350.9,4501.1,350.9z"/>
	<path class="st0" d="M3710.1,510.6H3404l6.2-35.7h299.3c0.6-10.2,1.9-20.5,3.8-30.7l10.9-61.6h-297.6l5.1-31.7h298.1l19.6-110.5 h-428.8l-67.4,379h513.1C3733.9,591.8,3714.7,554.9,3710.1,510.6z"/>
</g> -->
</svg>
